<svg width="42" height="40" viewBox="0 0 42 40" fill="none" xmlns="http://www.w3.org/2000/svg">
<path d="M20.5051 0.00128155C9.17732 0.00128155 0 9.18629 0 20.5064C0 29.5709 5.87471 37.2539 14.0165 39.9645C15.0456 40.158 15.4173 39.5236 15.4173 38.9751C15.4173 38.4881 15.4057 37.2001 15.3981 35.4905C9.69123 36.7259 8.48911 32.7338 8.48911 32.7338C7.55485 30.3706 6.20664 29.7362 6.20664 29.7362C4.35093 28.4688 6.35402 28.4957 6.35402 28.4957C8.40966 28.6354 9.4913 30.6039 9.4913 30.6039C11.3201 33.7412 14.2895 32.8338 15.4647 32.3058C15.6441 30.9845 16.1785 30.0759 16.7604 29.5696C12.2082 29.0557 7.42157 27.2936 7.42157 19.4363C7.42157 17.1923 8.21614 15.3647 9.52975 13.9294C9.30291 13.4155 8.6083 11.3265 9.71045 8.50193C9.71045 8.50193 11.4265 7.9547 15.3494 10.605C16.991 10.15 18.734 9.92319 20.4756 9.91166C22.2186 9.92319 23.9602 10.1513 25.6019 10.605C29.5017 7.9547 31.2165 8.50193 31.2165 8.50193C32.3173 11.3265 31.6227 13.4142 31.4228 13.9294C32.7236 15.3647 33.5182 17.1935 33.5182 19.4363C33.5182 27.3115 28.7251 29.048 24.1678 29.5491C24.8804 30.163 25.5481 31.4254 25.5481 33.3413C25.5481 36.0839 25.5225 38.2933 25.5225 38.961C25.5225 39.4941 25.8813 40.1349 26.9373 39.9286C35.1393 37.2462 41.0076 29.5568 41.0076 20.5051C41.0076 9.18501 31.8303 0 20.5025 0L20.5051 0.00128155Z" fill="#494949"/>
</svg>
